<?xml version="1.0" encoding="UTF-8"?>
<svg width="100px" height="100px" viewBox="0 0 100 100" version="1.1" xmlns="http://www.w3.org/2000/svg" xmlns:xlink="http://www.w3.org/1999/xlink">
    <title>icon/智慧引擎@3x</title>
    <g id="magic-os-定稿" stroke="none" stroke-width="1" fill="none" fill-rule="evenodd">
        <g id="智慧互联备份-3" transform="translate(-689.000000, -475.000000)">
            <g id="icon/智慧引擎" transform="translate(689.000000, 475.000000)">
                <g id="编组-5" transform="translate(14.000000, 14.000000)" opacity="0.800000012" stroke-width="5">
                    <g id="编组">
                        <path d="M27,16 C27,21.969575 24.402133,27.3220592 20.2939336,30.9512322" id="Stroke-3" stroke="#D7A85B"></path>
                        <path d="M60.5101303,31 C66.855614,31 72,25.9256339 72,19.6665182 C72,13.4065905 66.855614,8.33222443 60.5101303,8.33222443 C58.3055111,8.33222443 56.2540133,8.95586232 54.5046421,10.0171836 C54.3976218,4.4677808 49.8113881,0 44.1598902,0 C39.6642122,0 35.8493483,2.82991932 34.4177453,6.77800189 C32.985319,2.82991932 29.1704551,0 24.6756003,0 C18.9565973,0 14.3201464,4.57253248 14.3201464,10.2145065 C14.3201464,10.6075283 14.3473131,10.9940539 14.3917677,11.3757073 C13.1511548,10.8576331 11.7878802,10.570987 10.3554539,10.570987 C4.63645095,10.570987 0,15.1443315 0,20.7854935 C0,26.4266555 4.63645095,31 10.3554539,31 C35.4327921,31 35.4327921,31 60.5101303,31 Z" id="Stroke-1" stroke="#000000"></path>
                    </g>
                    <g id="编组备份" transform="translate(36.000000, 54.500000) scale(1, -1) translate(-36.000000, -54.500000) translate(0.000000, 39.000000)">
                        <path d="M27,16 C27,21.969575 24.402133,27.3220592 20.2939336,30.9512322" id="Stroke-3" stroke="#D7A85B"></path>
                        <path d="M60.5101303,31 C66.855614,31 72,25.9256339 72,19.6665182 C72,13.4065905 66.855614,8.33222443 60.5101303,8.33222443 C58.3055111,8.33222443 56.2540133,8.95586232 54.5046421,10.0171836 C54.3976218,4.4677808 49.8113881,0 44.1598902,0 C39.6642122,0 35.8493483,2.82991932 34.4177453,6.77800189 C32.985319,2.82991932 29.1704551,0 24.6756003,0 C18.9565973,0 14.3201464,4.57253248 14.3201464,10.2145065 C14.3201464,10.6075283 14.3473131,10.9940539 14.3917677,11.3757073 C13.1511548,10.8576331 11.7878802,10.570987 10.3554539,10.570987 C4.63645095,10.570987 0,15.1443315 0,20.7854935 C0,26.4266555 4.63645095,31 10.3554539,31 C35.4327921,31 35.4327921,31 60.5101303,31 Z" id="Stroke-1" stroke="#000000"></path>
                    </g>
                </g>
                <rect id="矩形备份" x="0" y="0" width="100" height="100"></rect>
            </g>
        </g>
    </g>
</svg>